<mxfile host="app.diagrams.net" agent="Mozilla/5.0 (Windows NT 10.0; Win64; x64) AppleWebKit/537.36 (KHTML, like Gecko) Chrome/131.0.0.0 Safari/537.36" version="24.9.1">
  <diagram name="Page-1" id="SdnRxZi2ot6a--HUVZI_">
    <mxGraphModel dx="605" dy="1208" grid="0" gridSize="10" guides="1" tooltips="1" connect="1" arrows="1" fold="1" page="0" pageScale="1" pageWidth="827" pageHeight="1169" math="0" shadow="0">
      <root>
        <mxCell id="0" />
        <mxCell id="1" parent="0" />
        <mxCell id="qE4UimyqzRavxsO6gZ62-26" value="" style="edgeStyle=none;curved=1;rounded=0;orthogonalLoop=1;jettySize=auto;html=1;fontSize=12;startSize=8;endSize=8;entryX=0.5;entryY=0;entryDx=0;entryDy=0;" edge="1" parent="1" source="qE4UimyqzRavxsO6gZ62-9" target="qE4UimyqzRavxsO6gZ62-13">
          <mxGeometry relative="1" as="geometry" />
        </mxCell>
        <mxCell id="qE4UimyqzRavxsO6gZ62-9" value="User" style="swimlane;fontStyle=0;childLayout=stackLayout;horizontal=1;startSize=30;horizontalStack=0;resizeParent=1;resizeParentMax=0;resizeLast=0;collapsible=1;marginBottom=0;whiteSpace=wrap;html=1;" vertex="1" parent="1">
          <mxGeometry x="176.5" y="-101" width="140" height="120" as="geometry" />
        </mxCell>
        <mxCell id="qE4UimyqzRavxsO6gZ62-10" value="device-based interaction" style="text;strokeColor=none;fillColor=none;align=left;verticalAlign=middle;spacingLeft=4;spacingRight=4;overflow=hidden;points=[[0,0.5],[1,0.5]];portConstraint=eastwest;rotatable=0;whiteSpace=wrap;html=1;" vertex="1" parent="qE4UimyqzRavxsO6gZ62-9">
          <mxGeometry y="30" width="140" height="30" as="geometry" />
        </mxCell>
        <mxCell id="qE4UimyqzRavxsO6gZ62-11" value="web-based UI" style="text;strokeColor=none;fillColor=none;align=left;verticalAlign=middle;spacingLeft=4;spacingRight=4;overflow=hidden;points=[[0,0.5],[1,0.5]];portConstraint=eastwest;rotatable=0;whiteSpace=wrap;html=1;" vertex="1" parent="qE4UimyqzRavxsO6gZ62-9">
          <mxGeometry y="60" width="140" height="30" as="geometry" />
        </mxCell>
        <mxCell id="qE4UimyqzRavxsO6gZ62-12" value="input data via wizard, run scans, view results" style="text;strokeColor=none;fillColor=none;align=left;verticalAlign=middle;spacingLeft=4;spacingRight=4;overflow=hidden;points=[[0,0.5],[1,0.5]];portConstraint=eastwest;rotatable=0;whiteSpace=wrap;html=1;" vertex="1" parent="qE4UimyqzRavxsO6gZ62-9">
          <mxGeometry y="90" width="140" height="30" as="geometry" />
        </mxCell>
        <mxCell id="qE4UimyqzRavxsO6gZ62-27" value="" style="edgeStyle=none;curved=1;rounded=0;orthogonalLoop=1;jettySize=auto;html=1;fontSize=12;startSize=8;endSize=8;entryX=0.5;entryY=0;entryDx=0;entryDy=0;" edge="1" parent="1" source="qE4UimyqzRavxsO6gZ62-13" target="qE4UimyqzRavxsO6gZ62-17">
          <mxGeometry relative="1" as="geometry" />
        </mxCell>
        <mxCell id="qE4UimyqzRavxsO6gZ62-13" value="Frontend" style="swimlane;fontStyle=0;childLayout=stackLayout;horizontal=1;startSize=30;horizontalStack=0;resizeParent=1;resizeParentMax=0;resizeLast=0;collapsible=1;marginBottom=0;whiteSpace=wrap;html=1;" vertex="1" parent="1">
          <mxGeometry x="151" y="60" width="191" height="165" as="geometry" />
        </mxCell>
        <mxCell id="qE4UimyqzRavxsO6gZ62-14" value="Minimalist design: Black, White, grey,&amp;nbsp;" style="text;strokeColor=none;fillColor=none;align=left;verticalAlign=middle;spacingLeft=4;spacingRight=4;overflow=hidden;points=[[0,0.5],[1,0.5]];portConstraint=eastwest;rotatable=0;whiteSpace=wrap;html=1;" vertex="1" parent="qE4UimyqzRavxsO6gZ62-13">
          <mxGeometry y="30" width="191" height="30" as="geometry" />
        </mxCell>
        <mxCell id="qE4UimyqzRavxsO6gZ62-15" value="Interactions: information wizard, buttons, tips, rejecting false positives" style="text;strokeColor=none;fillColor=none;align=left;verticalAlign=middle;spacingLeft=4;spacingRight=4;overflow=hidden;points=[[0,0.5],[1,0.5]];portConstraint=eastwest;rotatable=0;whiteSpace=wrap;html=1;" vertex="1" parent="qE4UimyqzRavxsO6gZ62-13">
          <mxGeometry y="60" width="191" height="48" as="geometry" />
        </mxCell>
        <mxCell id="qE4UimyqzRavxsO6gZ62-16" value="data output: shows results, tips, score, history&amp;nbsp;" style="text;strokeColor=none;fillColor=none;align=left;verticalAlign=middle;spacingLeft=4;spacingRight=4;overflow=hidden;points=[[0,0.5],[1,0.5]];portConstraint=eastwest;rotatable=0;whiteSpace=wrap;html=1;" vertex="1" parent="qE4UimyqzRavxsO6gZ62-13">
          <mxGeometry y="108" width="191" height="57" as="geometry" />
        </mxCell>
        <mxCell id="qE4UimyqzRavxsO6gZ62-28" value="" style="edgeStyle=none;curved=1;rounded=0;orthogonalLoop=1;jettySize=auto;html=1;fontSize=12;startSize=8;endSize=8;entryX=0.5;entryY=0;entryDx=0;entryDy=0;" edge="1" parent="1" source="qE4UimyqzRavxsO6gZ62-17" target="qE4UimyqzRavxsO6gZ62-21">
          <mxGeometry relative="1" as="geometry" />
        </mxCell>
        <mxCell id="qE4UimyqzRavxsO6gZ62-17" value="backend processing" style="swimlane;fontStyle=0;childLayout=stackLayout;horizontal=1;startSize=30;horizontalStack=0;resizeParent=1;resizeParentMax=0;resizeLast=0;collapsible=1;marginBottom=0;whiteSpace=wrap;html=1;" vertex="1" parent="1">
          <mxGeometry x="127" y="258" width="239" height="124" as="geometry" />
        </mxCell>
        <mxCell id="qE4UimyqzRavxsO6gZ62-18" value="API GET requests to external sources" style="text;strokeColor=none;fillColor=none;align=left;verticalAlign=middle;spacingLeft=4;spacingRight=4;overflow=hidden;points=[[0,0.5],[1,0.5]];portConstraint=eastwest;rotatable=0;whiteSpace=wrap;html=1;" vertex="1" parent="qE4UimyqzRavxsO6gZ62-17">
          <mxGeometry y="30" width="239" height="45" as="geometry" />
        </mxCell>
        <mxCell id="qE4UimyqzRavxsO6gZ62-19" value="organising data for local storage from front end" style="text;strokeColor=none;fillColor=none;align=left;verticalAlign=middle;spacingLeft=4;spacingRight=4;overflow=hidden;points=[[0,0.5],[1,0.5]];portConstraint=eastwest;rotatable=0;whiteSpace=wrap;html=1;" vertex="1" parent="qE4UimyqzRavxsO6gZ62-17">
          <mxGeometry y="75" width="239" height="49" as="geometry" />
        </mxCell>
        <mxCell id="qE4UimyqzRavxsO6gZ62-21" value="Data layer" style="swimlane;fontStyle=0;childLayout=stackLayout;horizontal=1;startSize=30;horizontalStack=0;resizeParent=1;resizeParentMax=0;resizeLast=0;collapsible=1;marginBottom=0;whiteSpace=wrap;html=1;" vertex="1" parent="1">
          <mxGeometry x="176.5" y="448" width="140" height="151" as="geometry" />
        </mxCell>
        <mxCell id="qE4UimyqzRavxsO6gZ62-22" value="Local database on computer" style="text;strokeColor=none;fillColor=none;align=left;verticalAlign=middle;spacingLeft=4;spacingRight=4;overflow=hidden;points=[[0,0.5],[1,0.5]];portConstraint=eastwest;rotatable=0;whiteSpace=wrap;html=1;" vertex="1" parent="qE4UimyqzRavxsO6gZ62-21">
          <mxGeometry y="30" width="140" height="30" as="geometry" />
        </mxCell>
        <mxCell id="qE4UimyqzRavxsO6gZ62-23" value="user data stored" style="text;strokeColor=none;fillColor=none;align=left;verticalAlign=middle;spacingLeft=4;spacingRight=4;overflow=hidden;points=[[0,0.5],[1,0.5]];portConstraint=eastwest;rotatable=0;whiteSpace=wrap;html=1;" vertex="1" parent="qE4UimyqzRavxsO6gZ62-21">
          <mxGeometry y="60" width="140" height="30" as="geometry" />
        </mxCell>
        <mxCell id="qE4UimyqzRavxsO6gZ62-24" value="OSINT information, login data, external API results (after confirmation by user)" style="text;strokeColor=none;fillColor=none;align=left;verticalAlign=middle;spacingLeft=4;spacingRight=4;overflow=hidden;points=[[0,0.5],[1,0.5]];portConstraint=eastwest;rotatable=0;whiteSpace=wrap;html=1;" vertex="1" parent="qE4UimyqzRavxsO6gZ62-21">
          <mxGeometry y="90" width="140" height="61" as="geometry" />
        </mxCell>
      </root>
    </mxGraphModel>
  </diagram>
</mxfile>
